<svg
      xmlns="http://www.w3.org/2000/svg"
      viewBox="0 0 1440 320"
    >
      <path
        fill="#ccc9a8"
        fill-opacity="1"
        d="m0,66.84081l60,11.14014c60,11.14014 180,33.42041 300,25.97044c120,-7.17146 240,-44.76942 360,-66.84081c120,-22.48915 240,-29.45173 360,-25.97044c120,3.48129 240,18.79898 300,25.97044l60,7.44997l0,-44.56054l-60,0c-60,0 -180,0 -300,0c-120,0 -240,0 -360,0c-120,0 -240,0 -360,0c-120,0 -240,0 -300,0l-60,0l0,66.84081l0,-0.00001z"
      ></path>
    </svg>